<svg width="300" height="300" fill="none" xmlns="http://www.w3.org/2000/svg"><g clip-path="url(#a)"><path d="M150 269c66.274 0 120-53.726 120-120S216.274 29 150 29 30 82.726 30 149s53.726 120 120 120z" fill="url(#b)"/><g filter="url(#c)"><rect x="89" y="63.556" width="124.537" height="155.029" rx="16" fill="#fff"/></g><rect x="100" y="83.556" width="50" height="9.8" rx="4.9" fill="#011625"/><rect x="100" y="111.356" width="100" height="9.8" rx="4.9" fill="#D5D5D5"/><rect x="100" y="139.156" width="100" height="9.8" rx="4.9" fill="#D5D5D5"/><rect x="100" y="166.956" width="100" height="9.8" rx="4.9" fill="#D5D5D5"/><rect x="100" y="194.756" width="100" height="9.8" rx="4.9" fill="#D5D5D5"/><g filter="url(#d)"><path d="M288.15 46.424h-60.081c-2.799 0-5.069 2.389-5.069 5.335v29.72c0 2.945 2.27 5.334 5.069 5.334h60.081c2.8 0 5.069-2.389 5.069-5.335V51.76c0-2.946-2.269-5.335-5.069-5.335z" fill="#fff"/></g><path d="M238 73a6 6 0 1 0 0-12 6 6 0 0 0 0 12z" fill="#CCC6D9"/><rect x="252" y="61" width="32" height="12" rx="6" fill="#D5D5D5"/><path fill-rule="evenodd" clip-rule="evenodd" d="M185.11 225.563c12.879 0 24.849-3.896 34.795-10.574l40.699 38.852 14.761-17.126-39.273-37.489c7.253-10.208 11.518-22.687 11.518-36.163 0-34.518-27.983-62.5-62.5-62.5-34.518 0-62.5 27.982-62.5 62.5s27.982 62.5 62.5 62.5zm53.309-62.5c0 29.223-23.691 52.914-52.914 52.914-29.223 0-52.913-23.691-52.913-52.914 0-29.223 23.69-52.913 52.913-52.913 29.223 0 52.914 23.69 52.914 52.913z" fill="#CCC6D9"/><g filter="url(#e)"><path d="M185.5 217c30.1 0 54.5-24.177 54.5-54s-24.4-54-54.5-54-54.5 24.177-54.5 54 24.4 54 54.5 54z" fill="#fff" fill-opacity=".3"/></g><path d="m194.923 163 13.189-13.138a6.842 6.842 0 0 0-.136-9.575 6.932 6.932 0 0 0-4.789-2.011 6.937 6.937 0 0 0-4.845 1.875l-13.218 13.138-13.189-13.138a6.934 6.934 0 0 0-4.926-2.15 6.926 6.926 0 0 0-4.985 2.011 6.855 6.855 0 0 0-2.023 4.955 6.856 6.856 0 0 0 2.164 4.895L175.376 163l-13.211 13.138a6.856 6.856 0 0 0-2.164 4.895 6.855 6.855 0 0 0 2.023 4.955 6.942 6.942 0 0 0 9.911-.139l13.218-13.138 13.219 13.138a6.936 6.936 0 0 0 4.792 1.71 6.928 6.928 0 0 0 4.67-2.015 6.84 6.84 0 0 0 .278-9.406L194.923 163z" fill="#3680c1"/><path d="m260.601 253.843 14.761-17.126 2.223 2.123c2.157 2.059 3.448 4.935 3.59 7.996.142 3.062-.878 6.057-2.834 8.327-1.957 2.27-4.69 3.629-7.599 3.778-2.909.149-5.755-.924-7.912-2.983l-2.223-2.122-.006.007z" fill="#E1DCEB"/><path fill-rule="evenodd" clip-rule="evenodd" d="M56.314 91.172a18.962 18.962 0 0 0-.555-4.313c-1.255-5.082-6.853-8.345-12.81-9.112-5.956-.767-12.15.979-14.537 5.4-1.365 2.527-1.553 4.706-.995 6.542.555 1.827 1.873 3.341 3.662 4.522 4.989 3.287 13.724 3.958 17.71 2.584a44.618 44.618 0 0 0 5.397-2.282c-1.002 5.746-4.738 11.189-9.724 16.094-10.836 10.661-27.65 18.753-36.807 21.728-.492.16-.766.705-.613 1.219.154.514.676.802 1.168.642 9.338-3.034 26.48-11.298 37.53-22.17 5.709-5.615 9.776-11.937 10.47-18.582 12.906-7.202 23.503-20.267 32.564-31.263a1.004 1.004 0 0 0-.099-1.374.907.907 0 0 0-1.316.103C78.67 71.456 68.581 84 56.314 91.172zm-1.876 1.045c.071-1.603-.08-3.231-.487-4.873-1.085-4.4-6.073-7-11.231-7.664-3.161-.406-6.412-.071-8.962 1.118-1.603.748-2.924 1.832-3.72 3.308-1.044 1.934-1.27 3.59-.842 4.993.428 1.414 1.493 2.55 2.88 3.462 4.545 2.997 12.499 3.634 16.127 2.382a43.903 43.903 0 0 0 6.235-2.726z" fill="#011625"/><circle cx="285" cy="184" r="6" fill="#417BA4"/><path fill-rule="evenodd" clip-rule="evenodd" d="M58.384 225.394c1.071-.401 2.198-.935 3.067-1.708 1.032-.917 1.452-2.099 1.733-3.343.362-1.599.507-3.301.946-4.902.162-.595.475-.82.609-.919.339-.252.682-.32 1.004-.294.382.029.907.181 1.253.855.049.097.113.244.156.445.031.148.052.609.085.8.083.469.152.938.218 1.409.217 1.569.342 2.902 1.028 4.344.931 1.957 1.864 3.154 3.13 3.685 1.222.513 2.685.416 4.554.014.178-.045.354-.084.528-.116.824-.151 1.612.418 1.774 1.282.162.863-.362 1.704-1.179 1.894-.17.04-.338.077-.504.112-2.526.658-5.45 3.006-7.149 5.062-.523.634-1.29 2.407-2.072 3.537-.578.835-1.226 1.384-1.77 1.579a1.52 1.52 0 0 1-.927.044 1.562 1.562 0 0 1-.911-.641 1.866 1.866 0 0 1-.304-.742c-.027-.151-.03-.534-.03-.708-.159-.577-.354-1.14-.496-1.723-.339-1.389-1.004-2.268-1.794-3.43-.74-1.087-1.533-1.771-2.697-2.316-.151-.039-1.373-.354-1.804-.534-.63-.265-.93-.709-1.04-.948a1.9 1.9 0 0 1-.167-1.055c.055-.436.24-.809.57-1.11.205-.187.51-.369.919-.458.315-.069 1.153-.109 1.27-.115zm7.167-2.264c.056.133.117.266.18.401 1.364 2.866 2.89 4.467 4.743 5.243l.062.025c-1.24.969-2.363 2.052-3.22 3.09-.354.428-.821 1.316-1.327 2.226-.459-1.57-1.21-2.68-2.154-4.07-.72-1.06-1.476-1.858-2.405-2.508a10.6 10.6 0 0 0 2.007-1.377c.997-.887 1.656-1.914 2.114-3.03z" fill="#417BA4"/></g><defs><filter id="c" x="59" y="53.556" width="184.537" height="215.029" filterUnits="userSpaceOnUse" color-interpolation-filters="sRGB"><feFlood flood-opacity="0" result="BackgroundImageFix"/><feColorMatrix in="SourceAlpha" values="0 0 0 0 0 0 0 0 0 0 0 0 0 0 0 0 0 0 127 0" result="hardAlpha"/><feOffset dy="20"/><feGaussianBlur stdDeviation="15"/><feComposite in2="hardAlpha" operator="out"/><feColorMatrix values="0 0 0 0 0.570833 0 0 0 0 0.570833 0 0 0 0 0.570833 0 0 0 0.19 0"/><feBlend in2="BackgroundImageFix" result="effect1_dropShadow_1413_1409"/><feBlend in="SourceGraphic" in2="effect1_dropShadow_1413_1409" result="shape"/></filter><filter id="d" x="216" y="37.424" width="96.219" height="66.389" filterUnits="userSpaceOnUse" color-interpolation-filters="sRGB"><feFlood flood-opacity="0" result="BackgroundImageFix"/><feColorMatrix in="SourceAlpha" values="0 0 0 0 0 0 0 0 0 0 0 0 0 0 0 0 0 0 127 0" result="hardAlpha"/><feOffset dx="6" dy="4"/><feGaussianBlur stdDeviation="6.5"/><feComposite in2="hardAlpha" operator="out"/><feColorMatrix values="0 0 0 0 0.104618 0 0 0 0 0.465612 0 0 0 0 0.545833 0 0 0 0.09 0"/><feBlend in2="BackgroundImageFix" result="effect1_dropShadow_1413_1409"/><feBlend in="SourceGraphic" in2="effect1_dropShadow_1413_1409" result="shape"/></filter><filter id="e" x="123" y="101" width="125" height="124" filterUnits="userSpaceOnUse" color-interpolation-filters="sRGB"><feFlood flood-opacity="0" result="BackgroundImageFix"/><feGaussianBlur in="BackgroundImageFix" stdDeviation="4"/><feComposite in2="SourceAlpha" operator="in" result="effect1_backgroundBlur_1413_1409"/><feBlend in="SourceGraphic" in2="effect1_backgroundBlur_1413_1409" result="shape"/></filter><linearGradient id="b" x1="149.075" y1="-10.075" x2="151.533" y2="411.347" gradientUnits="userSpaceOnUse"><stop stop-color="#F2F2F2"/><stop offset="1" stop-color="#EFEFEF"/></linearGradient><clipPath id="a"><path fill="#fff" d="M0 0h300v300H0z"/></clipPath></defs></svg>